<svg xmlns="http://www.w3.org/2000/svg" viewBox="0 0 24 24" width="24" height="24" fill="none" stroke="currentColor" stroke-width="1.75" stroke-linecap="round" stroke-linejoin="round" aria-hidden="true" focusable="false" data-ui-icon="recap" class="ui-icon"><path d="M12 6.5c3-1.7 6.2-2 9-1.3v14c-3-.7-6.2-.3-9 1.3Z" fill="currentColor" fill-opacity=".12" stroke="none"/><path d="M12 6.5C9 4.8 5.8 4.5 3 5.2v14c3-.7 6.2-.3 9 1.3 2.8-1.6 6-2 9-1.3v-14c-2.8-.7-6-.4-9 1.3Z"/><path d="M12 6.5v14"/><path d="M6.5 9.3l2.5.5m-2.5 3 2.5.5m6-3.5 2.5-.5m-2.5 4 2.5-.5"/></svg>
